<svg xmlns="http://www.w3.org/2000/svg" width="1200" height="630" viewBox="0 0 1200 630">
  <defs>
    <linearGradient id="bgGradient" x1="0%" y1="0%" x2="100%" y2="100%">
      <stop offset="0%" stop-color="#312e81" />
      <stop offset="100%" stop-color="#4338ca" />
    </linearGradient>
    <linearGradient id="glowGradient" x1="0%" y1="0%" x2="100%" y2="0%">
      <stop offset="0%" stop-color="#6366f1" />
      <stop offset="50%" stop-color="#818cf8" />
      <stop offset="100%" stop-color="#a5b4fc" />
    </linearGradient>
    <filter id="glow" x="-50%" y="-50%" width="200%" height="200%">
      <feGaussianBlur stdDeviation="10" result="blur" />
      <feComposite in="SourceGraphic" in2="blur" operator="over" />
    </filter>
    <pattern id="grid" width="40" height="40" patternUnits="userSpaceOnUse">
      <path d="M 40 0 L 0 0 0 40" fill="none" stroke="#a5b4fc20" stroke-width="1" />
    </pattern>
  </defs>
  
  <!-- Background -->
  <rect width="100%" height="100%" fill="url(#bgGradient)" />
  <rect width="100%" height="100%" fill="url(#grid)" />
  
  <!-- Browser Window -->
  <rect x="250" y="100" width="700" height="450" rx="10" fill="#0f172a" stroke="#818cf850" stroke-width="2" />
  
  <!-- Browser Header -->
  <rect x="250" y="100" width="700" height="40" rx="10" fill="#1e293b" stroke="#818cf850" stroke-width="1" />
  <circle cx="275" cy="120" r="6" fill="#ef4444" />
  <circle cx="295" cy="120" r="6" fill="#f59e0b" />
  <circle cx="315" cy="120" r="6" fill="#10b981" />
  <rect x="340" y="110" width="300" height="20" rx="3" fill="#334155" />
  
  <!-- App Interface -->
  <rect x="250" y="140" width="700" height="410" fill="#1e293b" />
  
  <!-- Sidebar -->
  <rect x="250" y="140" width="200" height="410" fill="#0f172a" />
  
  <!-- Sidebar Logo -->
  <g transform="translate(320, 170)">
    <rect width="60" height="25" rx="5" fill="#6366f140" stroke="#818cf8" stroke-width="1" />
    <text x="30" y="17" font-family="Arial, sans-serif" font-size="12" fill="#ffffff" text-anchor="middle">ATLAS</text>
  </g>
  
  <!-- Sidebar Menu Items -->
  <g transform="translate(280, 230)">
    <!-- Dashboard -->
    <rect width="140" height="36" rx="5" fill="#4338ca40" />
    <circle cx="20" cy="18" r="6" fill="#818cf860" />
    <rect x="40" y="13" width="70" height="10" rx="2" fill="#818cf840" />
    
    <!-- Analytics -->
    <g transform="translate(0, 46)">
      <rect width="140" height="36" rx="5" fill="#0f172a00" />
      <circle cx="20" cy="18" r="6" fill="#a5b4fc40" />
      <rect x="40" y="13" width="70" height="10" rx="2" fill="#a5b4fc30" />
    </g>
    
    <!-- Users -->
    <g transform="translate(0, 92)">
      <rect width="140" height="36" rx="5" fill="#0f172a00" />
      <circle cx="20" cy="18" r="6" fill="#a5b4fc40" />
      <rect x="40" y="13" width="70" height="10" rx="2" fill="#a5b4fc30" />
    </g>
    
    <!-- Settings -->
    <g transform="translate(0, 138)">
      <rect width="140" height="36" rx="5" fill="#0f172a00" />
      <circle cx="20" cy="18" r="6" fill="#a5b4fc40" />
      <rect x="40" y="13" width="70" height="10" rx="2" fill="#a5b4fc30" />
    </g>
    
    <!-- Help -->
    <g transform="translate(0, 184)">
      <rect width="140" height="36" rx="5" fill="#0f172a00" />
      <circle cx="20" cy="18" r="6" fill="#a5b4fc40" />
      <rect x="40" y="13" width="70" height="10" rx="2" fill="#a5b4fc30" />
    </g>
  </g>
  
  <!-- Main Content Area -->
  <rect x="450" y="140" width="500" height="410" fill="#1e293b" />
  
  <!-- Header Bar -->
  <rect x="450" y="140" width="500" height="60" fill="#1e293b" stroke="#0f172a" stroke-width="1" />
  
  <!-- Header Title and Search -->
  <g transform="translate(480, 170)">
    <text x="0" y="0" font-family="Arial, sans-serif" font-size="16" font-weight="bold" fill="#f8fafc">Dashboard</text>
    
    <!-- Search Bar -->
    <rect x="200" y="-15" width="180" height="30" rx="15" fill="#334155" />
    <circle cx="215" cy="0" r="8" fill="#64748b40" stroke="#64748b" stroke-width="1" />
    <line x1="220" y1="5" x2="225" y2="10" stroke="#64748b" stroke-width="1" />
    
    <!-- User Profile -->
    <circle cx="420" cy="0" r="12" fill="#a5b4fc40" stroke="#a5b4fc" stroke-width="1" />
    <rect x="415" y="-4" width="10" height="8" rx="4" fill="#a5b4fc30" />
    <circle cx="420" cy="-2" r="3" fill="#a5b4fc30" />
  </g>
  
  <!-- Stats Cards -->
  <g transform="translate(480, 230)">
    <!-- Card 1 -->
    <rect width="140" height="110" rx="8" fill="#334155" />
    <rect x="20" y="20" width="100" height="20" rx="3" fill="#475569" />
    <text x="70" y="70" font-family="Arial, sans-serif" font-size="24" fill="#f8fafc" text-anchor="middle">$24.5k</text>
    <rect x="30" y="80" width="80" height="8" rx="4" fill="#64748b" />
    
    <!-- Card 2 -->
    <g transform="translate(160, 0)">
      <rect width="140" height="110" rx="8" fill="#334155" />
      <rect x="20" y="20" width="100" height="20" rx="3" fill="#475569" />
      <text x="70" y="70" font-family="Arial, sans-serif" font-size="24" fill="#f8fafc" text-anchor="middle">+15.2%</text>
      <rect x="30" y="80" width="80" height="8" rx="4" fill="#64748b" />
    </g>
    
    <!-- Card 3 -->
    <g transform="translate(320, 0)">
      <rect width="140" height="110" rx="8" fill="#334155" />
      <rect x="20" y="20" width="100" height="20" rx="3" fill="#475569" />
      <text x="70" y="70" font-family="Arial, sans-serif" font-size="24" fill="#f8fafc" text-anchor="middle">2,450</text>
      <rect x="30" y="80" width="80" height="8" rx="4" fill="#64748b" />
    </g>
  </g>
  
  <!-- Chart Area -->
  <g transform="translate(480, 360)">
    <rect width="440" height="170" rx="8" fill="#334155" />
    
    <!-- Chart Title -->
    <rect x="20" y="20" width="150" height="15" rx="3" fill="#475569" />
    
    <!-- Chart -->
    <g transform="translate(20, 50)">
      <!-- Axes -->
      <line x1="0" y1="100" x2="400" y2="100" stroke="#64748b" stroke-width="1" />
      <line x1="0" y1="0" x2="0" y2="100" stroke="#64748b" stroke-width="1" />
      
      <!-- Y-Axis Labels -->
      <text x="-8" y="0" font-family="Arial, sans-serif" font-size="8" fill="#94a3b8" text-anchor="end">100%</text>
      <text x="-8" y="25" font-family="Arial, sans-serif" font-size="8" fill="#94a3b8" text-anchor="end">75%</text>
      <text x="-8" y="50" font-family="Arial, sans-serif" font-size="8" fill="#94a3b8" text-anchor="end">50%</text>
      <text x="-8" y="75" font-family="Arial, sans-serif" font-size="8" fill="#94a3b8" text-anchor="end">25%</text>
      <text x="-8" y="100" font-family="Arial, sans-serif" font-size="8" fill="#94a3b8" text-anchor="end">0%</text>
      
      <!-- X-Axis Labels -->
      <text x="50" y="115" font-family="Arial, sans-serif" font-size="8" fill="#94a3b8" text-anchor="middle">Q1</text>
      <text x="150" y="115" font-family="Arial, sans-serif" font-size="8" fill="#94a3b8" text-anchor="middle">Q2</text>
      <text x="250" y="115" font-family="Arial, sans-serif" font-size="8" fill="#94a3b8" text-anchor="middle">Q3</text>
      <text x="350" y="115" font-family="Arial, sans-serif" font-size="8" fill="#94a3b8" text-anchor="middle">Q4</text>
      
      <!-- Chart Lines -->
      <polyline points="50,80 150,40 250,60 350,20" fill="none" stroke="#a5b4fc" stroke-width="2" />
      <polyline points="50,90 150,70 250,50 350,30" fill="none" stroke="#6366f1" stroke-width="2" />
      
      <!-- Data Points -->
      <circle cx="50" cy="80" r="4" fill="#a5b4fc" />
      <circle cx="150" cy="40" r="4" fill="#a5b4fc" />
      <circle cx="250" cy="60" r="4" fill="#a5b4fc" />
      <circle cx="350" cy="20" r="4" fill="#a5b4fc" />
      
      <circle cx="50" cy="90" r="4" fill="#6366f1" />
      <circle cx="150" cy="70" r="4" fill="#6366f1" />
      <circle cx="250" cy="50" r="4" fill="#6366f1" />
      <circle cx="350" cy="30" r="4" fill="#6366f1" />
    </g>
  </g>
</svg> 